<?xml version="1.0" encoding="utf-8"?>
<!-- Generator: Adobe Illustrator 25.1.0, SVG Export Plug-In . SVG Version: 6.00 Build 0)  -->
<svg version="1.1" id="Livello_1" xmlns="http://www.w3.org/2000/svg" xmlns:xlink="http://www.w3.org/1999/xlink" x="0px" y="0px"
	 viewBox="0 0 1920 1080" style="enable-background:new 0 0 1920 1080;" xml:space="preserve">
<style type="text/css">
	.st0{fill:#CE0000;}
	.st1{fill:none;}
	.st2{font-family:'UniversityRegular';}
	.st3{font-size:26px;}
</style>
<g>
	<path class="st0" d="M849.6,305.3c-0.8,0.7-1.6,1.4-2.4,2.1c-1.5,0-3,0-6.3,0c15.1-11,14.1-24.4,13.1-38.4
		c-9.3,2.3-14.1,8.3-20,13.1c-3.2,2.6-4.6,5.9-6.1,9.4c-3.4,7.9-2.3,15.5-0.2,23.6c1.7,6.6,3.9-1.2,5.1,0.7c0,1.4,0,2.8,0,4.2
		c-0.8,0.7-1.6,1.4-2.4,2.1c-0.8,0.7-1.6,1.4-2.4,2.1c-0.8,0.7-1.6,1.4-2.4,2.1c-3.8,0.8-5.2,3.1-4.8,6.3c-0.8,0.7-1.6,1.4-2.4,2.1
		c-1.2,0.7-2.5,1.3-3.7,2c-0.2-1.2-1-2.8-0.4-3.5c3.3-4.3,0.4-10,4-14.2c0.6-0.7,0.4-2.1,0-3.1c-1.2-3.7-2.6-7.4-4-11.1
		c-1-2.7-2.1-5.4-3.5-8.8c-6.7,6-11.8,11.1-14.6,18.6c-2.8,7.3-0.8,14.2-1.8,21.2c4.5,3.8,2.1,11.4,9.6,13.7
		c-0.3,1.3-0.3,2.7-0.9,3.9c-3.4,6.4-6.9,12.7-10.5,19.2c-2.2-6.9,0.7-14.2-1.8-21.3c-2.5-7.2-7-12.9-12.1-19
		c-2.1,2.5-4.8,4.4-5.7,6.8c-2.1,5.2-4,10.6-4.7,16.1c-0.5,3.4,1.1,7.2,2.2,10.7c2.4,7.4,6.1,14.6,13.3,19.2
		c2.5,1.6,3.6,1.2,2.5,4.6c-2.9,9.6-7.4,19-6.3,29.3c0.1,1.3-0.5,2.7-0.7,4.1c-1.6-5.6-1.5-11.2-1.7-16.7c0-2-0.1-4.2-0.9-6
		c-4.1-8.8-10.2-16.5-18.6-22.7c-1.8-1.3-3.2-1.3-4.6,0.7c-3.1,4.4-2.6,9.2-2.3,13.9c0.9,14.3,7.6,25.7,22.4,32.5
		c2.8,1.3,4.1,2,4,4.8c-0.2,8.4-0.1,16.8-0.1,37.6c1-11.8-3.1-21.4-11.3-29.6c-6.4-6.3-13.6-11.6-23.9-12.3
		c-2.6,23.6,18.4,41.8,35.3,29.6c0.8,0.9,2.3,1.8,2.3,2.7c-0.3,12.2,4.1,23.5,7.5,35.1c0.8,2.9,2.6,5.5,2.2,8.6
		c-6.3-5.9-9.8-13.8-18.8-17.7c-7-3-13.9-6.3-21.6-7.5c-4.9-0.8-6.5,1.2-5,5.4c3.9,11,14.3,21.2,26.9,25.6c6,2.1,12.4,3.7,19.1,2.7
		c3.1-0.5,1.5-2.7,1.9-4.2c0.7,0.2,1.9,0.4,1.9,0.7c1.7,7.9,6.1,14.5,11.6,20.7c0.8,0.9,0.6,2.5,0.9,3.8c-1.8-0.5-4.1-0.5-5.2-1.5
		c-7.1-7.3-17.4-8.5-27-11c-2.4-0.6-5.4,0-8,0.6c-0.7,0.2-3.2,0.9-2,3.6c7.5,16.4,28.2,26.7,46.2,25.3c3.2-0.2,4.8-1.8,5.6-4.3
		c8,5.1,12.5,12.9,19.2,19c-3.9,0.8-6.3-2-9.4-3c-12.1-4.2-24.1-5.1-36.6-0.4c0.7,0.6,1.1,0.8,1.3,1.1c8.3,14.8,32.1,23.5,52.1,16.9
		c1.8-0.6,3-2.7,4.5-4.1c4.3,2.7,8.6,5.5,13,8.2c4.3,2.6,9.1,4.7,13.2,7.5c3.7,2.5,10,2,12.4,9.3c-9-7.1-18.1-5.7-26.9-6.2
		c-9.4-0.5-16.8,2.5-24.2,7.7c5.1,3.3,9.3,7.5,14.5,9c13,4,26.3,3.9,39-1.9c5.2-2.4,5.4-3.1,2.3-8.4c2.3,0.2,4.9-0.1,6.8,0.8
		c10.7,5,21.9,8.6,33.9,11.1c-5.2,0.7-10.3,0.9-15.4,0.7c-12.3-0.5-21.3,5-30.1,11.5c5.4,5.2,12.3,6.5,18.8,7.3
		c12,1.5,23.8,0.4,34.2-6.1c1,0.7,2.3,2.2,3,2c4.2-1.1,8.4-2.5,12.4-4.1c9.8-4,19.7-7.4,30.8-4.2c3.5,1,7.2,1.6,10.7,2.6
		c3.9,1.1,9.4,1.5,11,3.9c3.2,4.7,6.3-0.6,9.7,1.2c8.3,4.4,17.8,5.5,27.6,5c8.3-0.4,15.3-3,23.1-7.6c-6.1-3.4-11.2-6.6-16.8-9.2
		c-9.4-4.4-19.9-1-30.4-2.8c9.7-2.7,18.8-5,27.6-8c4.5-1.5,8.8-3.5,13.6-4.1c-3.1,5.3-2.6,5.5,2.2,8.5c7.2,4.5,15.1,3.9,23.2,4.2
		c12.3,0.4,21.6-4.4,30.1-11.8c-7.2-4.9-14.5-8-23.5-7.3c-5.1,0.4-10.4-0.1-15.5,0.2c-2.2,0.1-4.3,1.2-6.4,1.9
		c-0.1-0.3-0.2-0.6-0.4-0.9c11.2-6.7,22.4-13.4,33.5-20c1.1,1.3,1.9,3.4,3.4,3.9c19,6.9,45.4-1.2,53.6-18.3
		c-10.1-3.2-20.1-3.9-30.3-0.4c-4.8,1.7-9.8,2.9-14.8,4.3c3.3-3.2,6.6-6.5,9.9-9.7c3.1-3.1,6.2-6.2,9.4-9.3c0.9,2.5,2.4,4.1,5.7,4.3
		c5,0.3,12-0.2,18.1-2.2c14.5-4.8,24.5-13.4,29.4-26.7c-16.8-1.1-27,1.9-38.3,10.5c-1.3,1-3.5,1-5.2,1.5c0-1-0.5-2.7,0.1-3
		c5.2-3.3,5.8-9.1,9.5-13.3c2.3-2.6,1.3-6.8,4.9-9c0.4,1.5-1.2,3.7,1.9,4.2c3.8,0.5,11.3-0.3,17-2.1c11.6-3.6,20.4-10.3,26.5-19.7
		c-1.1-4,5.4-7.6,1.9-11.2c-3.2-3.2-6.9,1.2-10.6,1.6c-8.8,0.9-16.5,4.6-22.7,10c-4.4,3.8-7.7,8.6-11.5,13c0-1.7-0.7-3.8,0.1-5.2
		c4.3-7.5,5.4-15.6,7.5-23.6c1.4-5.4,1.9-10.6,2.1-16c0-0.6,1.5-1.1,2.3-1.7c0,4.1,0,8.2,0,12.3c17.8,0.4,40.1-21.9,34.5-42.2
		c-9,1.3-15.4,6.6-23.5,10.9c0.4,0,0.7,0,1.1,0c-0.2-0.5-0.3-1.2-0.7-1.6c-0.1-0.1-0.9,0.2-1.5,0.3c0.4,0.4,0.7,0.8,2.2,1.2
		c-3.1,4.4-6,8.9-9.2,13.3c-1.3,1.8,1.8,5.2-2.8,5.7c0-8,0.2-16.1-0.1-24.1c-0.1-3.5,1.2-5,4.8-6.6c15.8-7.1,26.1-27.7,21.6-42.1
		c-1.8-5.7-4.4-6.3-9.1-2.3c-2.3,1.9-4.9,3.7-6.7,6c-5.5,7.1-11.2,14.1-10.6,23.4c0.3,4.7,0.7,9.5-1.1,14.1
		c-0.8-1.3-1.1-2.6-1.1-3.8c-0.2-5.4-0.6-10.6-2-16c-1.8-6.7-5.6-13.1-5.2-20.2c1.5,0.4,3.9,1.6,4.5,1.1c9.9-7.9,19-26.7,10.9-41.4
		c-2-3.6-2.9-7.8-7.5-10.5c-1.7,2.6-2.7,4.8-4.3,6.5c-6.4,6.4-8.6,13.9-8.3,22.2c0.1,3.8,0,7.7,0,11.5c-4.6-1.3-1.6-5.8-4.6-8.3
		c-2.7-2.3-3-6.5-5.2-9.4c-1.3-1.8-2.7-3.3-2.3-5.5c0.4,0,1,0.2,1.2,0c9.8-9.9,10.6-21.8,7.1-33.3c-2.2-7.2-6.2-14.8-15.5-19.3
		c-1.2,2.9-2.7,5.6-3.5,8.4c-1.4,5.1-2.5,10.3-3.7,15.5c3,2,2.1,4.9,2.5,7.5c0.5,2.9,1.5,5.7,2.3,8.6c-1.6-0.7-3.2-1.4-4.8-2.1
		c0-5.7-5.3-7.8-9.6-10.5c-0.8-0.7-1.6-1.4-2.4-2.1s-1.6-1.4-2.4-2.1c0-1.4,0-2.8,0-4.2c1.2-2,3,5.6,5.3-0.6
		c1.8-4.9,2.1-9.4,1.6-13.9c-0.6-5.7-1.7-11.9-5.6-16.7c-3.7-4.5-8.6-8.3-13.4-11.9c-2.3-1.7-5.7-2.3-9.5-3.8c0,4.9,0,8.7,0,12.5
		c-0.1,9,2.6,17.1,10.3,23.6c1.2,1,1.2,3,1.8,4.6c-0.8,0-1.6,0-2.4,0c-0.8-0.7-1.6-1.4-2.4-2.1c-0.8-0.7-1.6-1.4-3.5-2.1
		c0.4,0,0.7,0,1.1,0c-0.2-0.5-0.3-1.2-0.7-1.6c-0.1-0.1-0.9,0.2-1.5,0.3c0.4,0.4,0.7,0.8,2.2,1.2c0.8,0.7,1.6,1.4,2.4,2.1
		c0,0.7,0,1.4,0,2.1c-1.2,0-2.7,0.4-3.5-0.1c-9-5.4-19.2-4.1-29.1-4.1c-3.1,0-13.2,5.1-13,6.3c0.6,4.3,5.5,4.2,8.4,6.1
		c14.4,9.5,30.4,10.8,47.4,6.5c2.9-0.7,1.5-2.7,1.9-4.2c0.8,0,1.6,0,2.4,0c0.8,0.7,1.6,1.4,2.4,2.1s1.6,1.4,2.4,2.1
		c0,5.7,5.3,7.8,9.6,10.5c-0.4,3.3,1,5.5,4.8,6.3c0,1.4,0,2.8,0,4.2c-2.1-1.5-4.7-2.7-6.2-4.5c-8.7-10.6-33.6-13.5-46.4-7.3
		c1.5,1.8,2.8,3.9,4.6,5.5c2,1.8,4.4,3.2,6.6,4.8c8.8,6.1,18.1,11,30,10c2.8-0.2,5.6,0,8.4,0c5.2-0.1,5.2-0.1,5.5-6.3
		c0.8,0,1.6,0,2.4,0c0,1-0.4,2.3,0.1,3.1c4.6,8.4,10.2,16.5,13.9,25.2c5.4,12.5,10.5,25.3,9.6,49.3c1.8-6.6-1.7-11.1-4.2-16.3
		c-6.2-12.8-18.6-17.6-32.2-21.2c-2.9-0.8-4.6,0.5-4,3.3c0.3,1.6,0.5,3.3,1,4.9c4.2,13.2,13.7,22.2,28,27.7c3.8,1.4,7,2.3,11.8-8.6
		c0.8,0.6,2.3,1.1,2.3,1.7c0.1,14.3,0.1,28.7,0,43c0,0.6-1.5,1.1-35.9-32.4c0.9,16,9.5,27.8,24.8,36.2c1,0.5,1.8,1.8,2.7,1.9
		c1.2,0,3.4-0.6,3.6-1.3c0.8-2.7,4-4.7,2.6-7.9c-0.8-1.8-2.2-3.6-2.3-5.4c-0.9-11.6-9.6-18.6-19.1-25.1c-2.1-1.4-4.1-3-6.4-4.2
		c-2.3-1.2-5.6,0.5-5.8,2.8c-0.1,1,0,2.1,33.6,37.2c-0.3,4.1,0.3,8.4-0.9,12.2c-2.6,8.4-4.6,17-8.7,25.1
		c-4.1,8.3-7.6,16.8-12.2,24.8c-2.1,3.6-6.2,6.4-9.4,9.6c0-2.5-0.9-5.3,0.1-7.3c6.9-13.5-1.6-26.3-9.7-35.8c-1.6-1.8-3-1.7-5,0.8
		c-4.6,5.7-3.5,12.7-6.9,18.6c-1.9,3.3,2.4,6.5,2.1,9.6c-0.8,8,5.7,13.4,8.4,20.1c1.5,3.7,4.1,0.5,6.2,0.3c-0.5,1.5-0.7,3.4-1.7,4.6
		c-2.4,2.7-5.2,5.1-7.9,7.6c-6,5.8-12,11.6-18.1,17.3c-0.6,0.5-2.3,0.1-3.5,0.1c3.1-5.6,8.4-9.8,10.5-16.2
		c1.9-5.6,0.4-10.9,1.5-16.2c1.2-5.8-3.5-10-5.1-15c-0.1-0.5-2.6-0.6-3.9-0.5c-0.6,0-1.1,0.9-1.7,1.4c-5.2,4.1-7.4,10-9.9,15.3
		c-2.4,5.1-3.5,11.1-3.2,16.6c0.2,5.1,3,10,4.5,15.1c0.8,2.6,3.1,1.3,4.8,1.7c-6.6,7.5-15.8,12.1-24.9,16.9
		c-3.5,1.8-6.7,4.4-11.2,4.2c2.8-2.8,5.8-5.5,8.4-8.5c9.7-11.1,15.1-25.4,7.4-37.8c-2.7,1.6-5.7,3-8.2,4.9
		c-14.3,11.2-19.2,25.4-17.2,41.8c0.3,2.6,3,1.3,4.8,1.6c-0.3,0.6-0.4,1.6-0.9,1.7c-7.8,2.8-15.6,5.8-23.6,8.1
		c-12.5,3.6-25.4,5.6-38.5,7.1c-5.3,0.6-10.9-1.6-15.8,2c-0.8,0.6-3.6,0.4-4.4-0.3c-3-2.9-6.7-1.4-10-1.6c-4.4-0.3-9.1,0.9-13.1-0.3
		c-11.3-3.3-23.3-4-34.3-8.2c-6.9-2.6-14.8-3.5-20.4-8.5c1.5-0.2,4.2-0.4,4.2-0.7c0.3-6.5,1.8-13.5-0.1-19.5
		c-3.8-12-11-22.4-24.8-27.9c-1.1,1.9-3,3.9-3.2,6c-1.3,12.5,2.1,23.8,12.3,33.1c2.4,2.2,4.5,4.6,6.8,6.9c-8.7-0.7-14.9-6.2-21.5-10
		c-5.1-2.9-12.1-5-14.6-11c1.5-0.2,4-0.1,4.3-0.8c2.8-6.5,5.7-13,5.2-20.1c-0.2-2.2-2.1-4.3-2.2-6.5c-0.6-8.4-5.8-14.9-11.2-21.2
		c-2.8-3.3-2.7-2.6-5.9,1c-3.8,4.3-5.4,8.9-4.6,14.1c0.8,5-0.6,9.9,1.4,15.2c2.4,6.2,7.5,10.6,10.6,16.1c-1.2,0-2.9,0.5-3.5-0.1
		c-10.1-8.5-20.2-16.9-27.7-27.4c-0.4-0.5,0-1.4,7.4-53.1c-9.9,5.9-12.5,15.1-14.6,24.4c-2.3,9.7,4.4,17.9,7.2,26.7
		c0.6,2,4.9,1.9,6.1-0.2c2.1-3.4,3.7-7,5.8-10.4c3.3-5.4,4.7-11.8,4.2-17.1c-0.7-7.8-1.8-16.3-16.3,27.8
		c-9.1-4.7-11.5-13.6-16.6-20.7c-8.2-11.3-11.3-24.6-16.3-37.1c-2.4-6-5.4-13.1-2.1-20.7c2.8,5.1,2.6,4.9,6.2,3.7
		c5.4-1.8,8.6-5.7,12.5-9c9.9-8.4,14.4-18.7,13.9-30.7c-0.2-3.9-0.4-3.6-4.6-2.8c-7.5,1.4-11.7,6.3-16.6,10.5
		c-5.6,4.8-9.1,10.5-10.1,17.4c-0.2,1.5-1.7,2.9-2.3,4.4c-0.6,1.4-0.7,3-1,4.5c-1-20.3-2.9-40.5,3.2-60.4c3.5-11.7,7.8-23,13.3-34
		c2.8-5.6,7.5-10.5,8.5-16.9c0.8,0,1.6,0,2.4,0c0.8,2.1-2,5.8,1.9,6.2c13.1,1.3,26.3,0.6,37.5-6.3c5.9-3.7,10.4-9.2,15.5-13.8
		c-5.1-3.8-11.5-2.7-17.6-2.9c-11.2-0.2-21,2.6-28.6,10.3c-1.7,1.7-4.1,3-6.2,4.5c0-1.4,0-2.8,0-4.2c3.8-0.8,5.2-3.1,4.8-6.3
		c0.8-0.7,1.6-1.4,2.4-2.1c3.8-0.8,5.2-3.1,4.8-6.3c0.8-0.7,1.6-1.4,2.4-2.1c0.8-0.7,1.6-1.4,2.4-2.1c0.8-0.7,1.6-1.4,2.4-2.1
		c0.8,0,1.6,0,2.4,0c0.3,1.3,0.1,3.4,0.9,3.8c7.9,3.3,21.6,2.4,31.4,1c10-1.5,16.2-7.9,24.5-11.5c0.5-0.2,0.6-2.7-0.1-3.4
		c-1.2-1.2-3-2-4.7-2.5c-12-3.5-23.9-3.4-35.6,1.3c-1.3,0.5-2.9,0.5-4.4,0.8c0-0.7,0-1.4,0-2.1c0.8-0.7,1.6-1.4,3.8-4
		c-0.5,0.3-0.9,0.7-1.4,1c0.4,0.3,0.7,0.6,1.1,0.9c0.4-0.4,0.8-0.8,1.1-1.3C851.7,303.9,851.2,303.6,849.6,305.3z M794.9,387
		c19.9,3.2,45.9-12.2,49.5-28.2C819.2,353.5,793.6,371.7,794.9,387z M853.6,303.1c24.5,0.6,40.9-8.2,51.8-25.6
		c-3.9-2.1-7-4.5-11.6-3.9c-4.8,0.7-22.1,5.7-25.8,8.5C860.9,287.5,855.9,294,853.6,303.1z M1039.3,562c-12.6,3-20.3,9.8-27,17.1
		c-4,4.4-6.3,10.2-8.4,15.7c-1.4,3.7-0.9,7.9-0.1,11.6C1028.6,599.6,1040.6,585.3,1039.3,562z M819.9,454.7c-1.4,1-2.1,1.8-3.2,2.2
		c-11.6,4.5-16.4,14.1-19.5,23.3c-2.3,6.7-1.9,14.8,1.8,22.1c1.7,3.5,2.3,4.1,5.1,1.8c8.9-7.2,14.4-15.7,17.1-26.4
		C823.2,470,823.9,462.9,819.9,454.7z M947.4,606.3c3-9.5-1.5-17.9-6.8-25.2c-6.4-8.7-15.4-15.7-27.8-19c-2.3,8.8-0.2,17.4,4.5,24.1
		C924.5,596.5,923.6,598.1,947.4,606.3z M1131.7,455.3c-2,5.1-4.6,10.5-3.3,16.3c0.6,2.9,1.6,5.7,2.4,8.6c2.8,10,9.5,18,17.9,24.9
		c0.5,0.4,3.4-0.4,3.6-1c3.1-8.2,4.9-17.3,1.8-25.1C1150,469.3,1144.3,459.4,1131.7,455.3z M784.7,425.4c3.3,0,5.8,0.5,8-0.1
		c12.9-3.4,28.9-18.4,32.5-30.3c0.6-2.2,0.9-5.4-0.5-6.8c-1.6-1.7-4.9-1.2-7.1,0.9c-0.6,0.6-2.2,0.2-3.3,0.5
		C796.5,395.1,787.3,404.8,784.7,425.4z M1156.8,387.7c0.1-2,0.6-3.1,0.2-4c-4.3-11.8-13.6-19.3-26.7-23.8c-6-2-12-2.1-18.2-1.9
		c-4.5,0.1-5.8,2.9-3.1,6.5C1120.1,379.3,1135.4,387.5,1156.8,387.7z M1097,303.4c0-2.7,0.5-4.3-0.1-5.5
		c-4.3-8.4-11.8-14.8-20.2-19.4c-6-3.2-14.2-3.5-21.5-4.7c-1.5-0.2-3.3,1.8-5,1.9c-4.5,0.2-4.4,1.5-2.4,4.4
		C1058.9,296.2,1075.4,302.9,1097,303.4z"/>
	<path class="st0" d="M1173.9,454.9c-0.8,0.6-2.3,1.1-2.3,1.7c-0.3,5.4-0.7,10.6-2.1,16c-2.1,8-3.2,16.1-7.5,23.6
		c-0.8,1.4-0.1,3.4-0.1,5.2c-3.6,0.2-2,2.6-2.4,4.2c-3.6,2.2-2.5,6.4-4.9,9c-3.7,4.1-4.3,9.9-9.5,13.3c-0.6,0.4-0.1,2-0.1,3.5
		c0,0.2,0-0.2,0-0.5c-0.6,0.2-1.3,0.3-1.8,0.6c-0.1,0.1,0.2,0.8,0.4,1.3c0.5-0.3,0.9-0.6,1.4-1.4c1.8-1,3.9-1,5.2-2
		c11.4-8.6,21.5-11.5,38.3-10.5c-4.9,13.3-14.9,21.9-29.4,26.7c-6.1,2-13.1,2.5-18.1,2.2c-3.2-0.2-4.8-1.8-5-5.2
		c0.2-0.6-0.2-0.3-0.7,0c0.4,0.3,0.7,0.6,1.1,0.9c0.4-0.4,0.8-0.8,1.1-1.3c0-0.1-0.5-0.4-1.4,0.3c-3.8,4.1-6.9,7.1-10.1,10.2
		c-3.3,3.2-6.6,6.5-9.9,9.7c-0.8,0.7-1.6,1.4-2.4,2.1c-0.8,0.7-1.6,1.4-2.4,2.1c-0.8,0.7-1.6,1.4-2.4,2.1c-0.8,0.7-1.6,1.4-2.4,2.1
		c-0.8,0.7-1.6,1.4-2.4,2.1c-11.2,6.7-22.4,13.4-33.5,20c0.1,0.3,0.2,0.6,0.4,0.9c2.1-0.7,4.2-1.8,6.4-1.9
		c5.2-0.3,10.4,0.2,15.5-0.2c9-0.7,16.3,2.4,23.5,7.3c-8.5,7.4-17.7,12.2-30.1,11.8c-8.1-0.3-16,0.3-23.2-4.2
		c-4.8-3-5.3-3.2-1.5-9.5c0.2-0.6-0.2-0.3-0.7,0c0.4,0.3,0.7,0.6,1.1,0.9c0.4-0.4,0.8-0.8,1.1-1.3c0-0.1-0.5-0.4-1.4,0.3
		c-5.6,1.6-9.8,3.5-14.3,5c-8.8,3-17.9,5.2-27.6,8c10.5,1.8,21.1-1.6,30.4,2.8c5.5,2.6,10.7,5.8,16.8,9.2
		c-7.8,4.7-14.8,7.2-23.1,7.6c-9.8,0.5-19.3-0.6-27.6-5c-3.4-1.8-6.5,3.5-9.7-1.2c-1.6-2.4-7.2-2.8-11-3.9c-3.5-1-7.2-1.6-10.7-2.6
		c-11.1-3.2-21,0.2-30.8,4.2c-4,1.6-8.2,3-12.4,4.1c-0.7,0.2-2-1.3-2.3-2.9c0.2-0.6-0.2-0.3-0.7,0c0.4,0.3,0.7,0.6,1.1,0.9
		c0.4-0.4,0.8-0.8,1.1-1.3c0-0.1-0.5-0.4-1.4,0.3c-11.1,7.5-22.9,8.6-34.9,7.1c-6.5-0.8-13.4-2.1-18.8-7.3
		c8.8-6.5,17.9-12,30.1-11.5c5.1,0.2,10.2,0,15.4-0.7c-11.9-2.5-23.2-6.1-33.9-11.1c-1.9-0.9-4.5-0.6-7.3-0.8c-0.2,0,0.2,0,0.5,0
		c-0.2-0.5-0.3-1.2-0.7-1.6c-0.1-0.1-0.9,0.2-1.5,0.3c0.4,0.4,0.7,0.8,1.6,1.2c3.6,5.3,3.5,6-1.8,8.4c-12.6,5.7-25.9,5.8-39,1.9
		c-5.2-1.6-9.3-5.7-14.5-9c7.4-5.2,14.8-8.3,24.2-7.7c8.8,0.5,17.8-0.9,26.9,6.2c-2.4-7.3-8.8-6.8-12.4-9.3c-4.1-2.8-8.9-5-13.2-7.5
		c-4.4-2.6-8.6-5.4-13-8.2c-0.8-0.7-1.6-1.4-2.9-2.1c-0.2,0,0.2,0,0.5,0c-0.2-0.5-0.3-1.2-0.7-1.6c-0.1-0.1-0.9,0.2-1.5,0.3
		c0.4,0.4,0.7,0.8,1.6,1.2c1.3,0.7,2.1,1.4,2.9,2.1c-1.5,1.4-2.7,3.5-4.5,4.1c-20,6.6-43.9-2.1-52.1-16.9c-0.2-0.3-0.6-0.5-1.3-1.1
		c12.5-4.7,24.5-3.9,36.6,0.4c3.1,1.1,5.5,3.8,9.4,3c0.8,0.7,1.6,1.4,3.5,2.7c0.7,0.2,0.3-0.2,0-0.6c-0.4,0.3-0.7,0.6-1.1,0.9
		c0.5,0.3,0.9,0.7,1.4,0.9c0.1,0,0.5-0.4-0.3-1.3c-1.9-1.3-2.7-2-3.5-2.7c-6.7-6.1-11.2-13.9-19.2-19c-0.4-1.6,1.2-4-2.4-4.2
		c-0.8-0.7-1.6-1.4-2.4-2.1c-0.8-0.7-1.6-1.4-2.4-2.1c-0.4-1.6,1.2-4-2.4-4.2c-0.3-1.3-0.1-2.9-0.9-3.8c-5.5-6.2-9.9-12.9-11.6-20.7
		c-0.1-0.3-1.3-0.5-1.9-0.7c-0.4-1.6,1.2-4-2.4-4.2c0.4-3.1-1.4-5.7-2.2-8.6c-3.4-11.5-7.8-22.9-7.5-35.1c0-0.9-1.5-1.8-2.3-2.7
		c0-8.4-0.1-16.8,0.1-25.2c0.1-2.9-1.2-3.5-4-4.8c-14.8-6.8-21.5-18.3-22.4-32.5c-0.3-4.7-0.8-9.5,2.3-13.9c1.4-2,2.8-2.1,4.6-0.7
		c8.4,6.2,14.4,13.9,18.6,22.7c0.8,1.8,0.9,4,0.9,6c0.1,5.5,0,11,1.7,16.7c0.3-1.4,0.9-2.8,0.7-4.1c-1.1-10.3,3.4-19.7,6.3-29.3
		c1-3.4,0-3-2.5-4.6c-7.2-4.6-10.9-11.7-13.3-19.2c-1.1-3.5-2.7-7.2-2.2-10.7c0.7-5.5,2.6-10.9,4.7-16.1c1-2.4,3.6-4.3,5.7-6.8
		c5,6.1,9.6,11.9,12.1,19c2.5,7.1-0.4,14.3,1.8,21.3c3.6-6.5,7.1-12.8,10.5-19.2c0.6-1.2,0.6-2.6,0.9-3.9c0.8-0.7,1.6-1.4,2.4-2.1
		c0.8,0,1.6,0,2.4,0c-1,6.3-5.7,11.2-8.5,16.9c-5.5,11-9.8,22.4-13.3,34c-6,19.9-4.2,40-3.2,60.4c0.3-1.5,0.5-3.1,1-4.5
		c0.6-1.5,2-2.9,2.3-4.4c1-6.9,4.5-12.6,10.1-17.4c5-4.2,9.2-9.1,16.6-10.5c4.3-0.8,4.4-1.1,4.6,2.8c0.5,12-4,22.3-13.9,30.7
		c-3.9,3.3-7.1,7.2-12.5,9c-3.6,1.2-3.4,1.4-6.2-3.7c-3.4,7.6-0.3,14.7,2.1,20.7c4.9,12.5,8,25.8,16.3,37.1
		c5.2,7.1,7.6,16,16.6,20.7c0,0.7-0.3,1.6,0,2.1c7.5,10.5,17.6,18.9,27.7,27.4c0.6,0.5,2.3,0.1,3.5,0.1c0.8,0.7,1.6,1.4,2.4,2.1
		c2.4,6,9.5,8.1,14.6,11c6.6,3.8,12.8,9.4,21.5,10c0.2,3.2,3,1.8,4.8,2.1c5.6,5,13.4,5.9,20.4,8.5c11,4.2,23.1,4.9,34.3,8.2
		c3.9,1.2,8.7,0,13.1,0.3c3.3,0.2,7-1.3,10,1.6c0.8,0.7,3.6,1,4.4,0.3c4.9-3.6,10.6-1.4,15.8-2c13-1.4,26-3.4,38.5-7.1
		c8-2.3,15.8-5.3,23.6-8.1c0.5-0.2,0.6-1.1,0.9-1.7c1.8-0.3,4.6,1,4.8-2.1c4.5,0.2,7.7-2.4,11.2-4.2c9-4.8,18.3-9.3,24.9-16.9
		c0.8-0.7,1.6-1.4,2.4-2.1c1.2,0,2.9,0.5,3.5-0.1c6.2-5.7,12.1-11.5,18.1-17.3c2.6-2.5,5.5-4.9,7.9-7.6c1.1-1.2,1.2-3,1.7-4.6
		c3.8-0.8,5.2-3.1,4.8-6.3c3.2-3.2,7.3-5.9,9.4-9.6c4.6-8,8.1-16.6,12.2-24.8c4-8.1,6-16.6,8.7-25.1c1.2-3.9,0.7-8.1,0.9-12.2
		c0.8-0.6,2.3-1.1,2.3-1.7c0.1-14.3,0.1-28.7,0-43c0-0.6-1.5-1.1-2.3-1.7c0.4-13.8-4.6-26.6-10-39.1c-3.8-8.7-9.3-16.8-13.9-25.2
		c-0.5-0.8-0.1-2.1-0.1-3.1c0.8,0,1.6,0,2.4,0c0.8,0.7,1.6,1.4,2.4,2.1c-0.4,2.2,0.9,3.7,2.3,5.5c2.2,2.9,2.5,7.2,5.2,9.4
		c3,2.5,0,7,5.9,9.4c0.9,0.4,0.3-0.3-0.2-1.1c-0.4,0.3-1.1,0.7-1.1,1c0.3,1.1,0.9,2.1,1.3,3.1c0.3-0.5,0.7-1.1-0.1-3
		c-1.3-4.9-1.2-8.8-1.3-12.6c-0.3-8.3,1.9-15.8,8.3-22.2c1.7-1.7,2.7-3.9,4.3-6.5c4.6,2.7,5.5,6.9,7.5,10.5
		c8.1,14.7-1,33.5-10.9,41.4c-0.6,0.5-2.9-0.7-5.3-0.7c0.2-0.7,0.8-1.1,0.8-1.4c0-0.9-0.4-1.8-0.6-2.7c-0.5,0.1-1.5,0.2-1.5,0.4
		c0,1.1,0.2,2.3,1.3,3.8c0.5,6.7,4.3,13.1,6.1,19.8c1.4,5.4,1.8,10.6,2,16c0,1.3,0.3,2.6,1.1,3.8c1.9-4.6,1.5-9.4,1.1-14.1
		c-0.6-9.4,5.1-16.4,10.6-23.4c1.8-2.3,4.4-4,6.7-6c4.7-4,7.4-3.3,9.1,2.3c4.5,14.4-5.8,35-21.6,42.1c-3.6,1.6-5,3.1-4.8,6.6
		C1174.2,438.8,1173.9,446.9,1173.9,454.9z M1141.7,535.2c-0.5,0.3-0.9,0.7-1.4,1c0.4,0.3,0.7,0.6,1.1,0.9c0.4-0.4,0.8-0.8,1.1-1.3
		c0-0.1-0.5-0.4-2.1,2.2c0-0.3,0-0.6,0-0.9c-0.6,0.2-1.3,0.3-1.8,0.6c-0.1,0.1,0.2,0.8,0.4,1.3
		C1139.3,538.7,1139.8,538.4,1141.7,535.2z M1010.1,613c-2.8,0-6-0.2-9.1,0.1c-2.4,0.3-6.7-1.8-7,1.5c-0.6,5,4.6,1.7,7,2.6
		c1.7,0.7,3.3,1.5,5,2c0.3,0.1,1.6-1.4,1.5-1.4c-4.3-4.7,4.1-1.2,5.6-7.1c-0.7,0.4-1.6,0.8-2.5,1.3c0.4,0.3,0.8,1,1.1,0.9
		c1.2-0.3,2.3-0.8,3.5-1.2C1014.5,611.4,1013.9,611.1,1010.1,613z M938.7,613.4c0.8-0.5,1.5-1,2.2-1.4c-0.6-0.4-1.1-1.1-1.7-1.1
		c-1,0-2,0.5-2.9,0.8c0.7,0.5,1.4,1,25.1,1.2c-7.6,0-13.5,0-19.3,0c-0.4,0-0.8,0.7-1.2,1c0.6,0.4,1.2,0.8,1.9,1
		c1,0.4,3.7-0.4,1.9,1.8c-1.1,1.4-1.4,2.9,0.7,2.2c3.6-1.2,7-2.2,11-2.1C957.6,617,958.8,615.1,938.7,613.4z M786.9,381.4
		c0.6,0.8,1,1.3,1.4,1.8c0.4-0.9,1-1.7,1.1-2.6c0.1-0.5-0.7-1.1-1.1-1.6C787.8,379.9,787.3,380.7,786.9,381.4z M1067,594
		c-0.3,0.2-0.8,0.5-0.8,0.7c0.1,0.5,0.5,0.9,0.8,1.4c0.3-0.2,0.8-0.5,0.8-0.7C1067.6,594.9,1067.3,594.5,1067,594z M789.8,375.6
		c0.3,0.4,0.6,0.9,0.9,1.4c0.3-0.2,0.8-0.5,0.8-0.7c-0.1-0.5-0.5-0.9-0.8-1.4C790.4,375.1,790.2,375.3,789.8,375.6z"/>
	<path class="st0" d="M818.3,334.8c0.4,3.3-1,5.5-4.8,6.3c-0.3-0.6-0.5-1.2-0.8-1.7c-0.5,0.6-1.1,1.2-1.6,2.2c0,0.2,0-0.2,0-0.5
		c-0.6,0.2-1.3,0.3-1.8,0.6c-0.1,0.1,0.2,0.8,0.4,1.3c0.5-0.3,0.9-0.6,1.4-1.4c0.8-0.5,1.6-0.5,2.4-0.5c0,1.4,0,2.8,0,4.2
		c-0.8,0.7-1.6,1.4-2.4,2.1c-0.8,0-1.6,0-2.4,0c-0.3-0.6-0.5-1.2-0.8-1.7c-0.5,0.6-1.1,1.2-1.6,1.7c-0.8,0.7-1.6,1.4-2.4,2.1
		c-7.5-2.3-5.1-9.8-9.6-13.7c1.1-7-0.9-13.9,1.8-21.2c2.8-7.5,8-12.6,14.6-18.6c1.3,3.4,2.4,6.1,3.5,8.8c1.4,3.7,2.8,7.4,4,11.1
		c0.3,1,0.5,2.4,0,3.1c-3.6,4.3-0.7,9.9-4,14.2c-0.6,0.8,0.2,2.3,0.4,3.5C815.8,336.1,817.1,335.5,818.3,334.8z"/>
	<path class="st0" d="M1161.9,501.3c3.8-4.4,7.1-9.2,11.5-13c6.2-5.4,14-9.1,22.7-10c3.7-0.4,7.3-4.9,10.6-1.6
		c3.6,3.6-2.9,7.2-1.9,11.2c-6.1,9.4-14.8,16.1-26.5,19.7c-5.7,1.8-13.1,2.7-17,2.1c-3.1-0.4-1.5-2.7-1.9-4.2
		C1163.1,505.3,1161.6,502.9,1161.9,501.3z"/>
	<path class="st0" d="M1137.9,336.9c-0.8-2.9-1.9-5.7-2.3-8.6c-0.4-2.6,0.5-5.6-2.5-7.5c1.2-5.2,2.3-10.4,3.7-15.5
		c0.8-2.8,2.2-5.5,3.5-8.4c9.3,4.5,13.3,12.2,15.5,19.3c3.5,11.5,2.7,23.5-7.1,33.3c-0.2,0.2-0.8,0-1.2,0c-0.8-0.7-1.6-1.4-2.4-2.1
		c-0.3-0.6-0.5-1.2-0.8-1.7c-0.5,0.6-1.1,1.2-1.6,1.7c-0.8,0-1.6,0-2.4,0c-0.8-0.7-1.6-1.4-2.4-2.1c0-1.4,0-2.8,0-4.2
		c0.8,0,1.6,0,3.5,0.6c0.7,0.2,0.3-0.2,0-0.6c-0.4,0.3-0.7,0.6-1.1,0.9c0.5,0.3,0.9,0.7,1.4,0.9c0.1,0,0.5-0.4-0.3-1.3
		C1139.9,339.5,1141.5,337.1,1137.9,336.9z"/>
	<path class="st0" d="M794.9,387c-1.3-15.3,24.3-33.4,49.5-28.2C840.8,374.7,814.9,390.2,794.9,387z"/>
	<path class="st0" d="M847.2,307.4c0,0.7,0,1.4,0,2.1c-0.8,0.7-1.6,1.4-2.4,2.1c-0.8,0-1.6,0-2.4,0c-0.3-0.6-0.5-1.2-0.8-1.7
		c-0.5,0.6-1.1,1.2-1.6,1.7c-1.8,0.3-4.6-1-4.8,2.1c-0.8,0.7-1.6,1.4-2.4,2.1c-1.2-2-3.4,5.9-5.1-0.7c-2-8.1-3.2-15.7,0.2-23.6
		c1.5-3.5,2.9-6.8,6.1-9.4c5.9-4.8,10.7-10.9,20-13.1c1,14,2,27.4-13.1,38.4C844.2,307.4,845.7,307.4,847.2,307.4z"/>
	<path class="st0" d="M777.4,467.2c-16.8-0.1-37.9-18.3-35.3-41.9c10.3,0.7,17.5,5.9,23.9,12.3C774.4,445.8,778.4,455.4,777.4,467.2
		z"/>
	<path class="st0" d="M1116.3,562.4c4.9-1.4,10-2.6,14.8-4.3c10.2-3.6,20.2-2.8,30.3,0.4c-8.2,17.1-34.6,25.2-53.6,18.3
		c-1.5-0.5-2.3-2.6-3.4-3.9c0.8-0.7,1.6-1.4,2.4-2.1c0.8-0.7,1.6-1.4,2.4-2.1c0.8-0.7,1.6-1.4,2.4-2.1c0.8-0.7,1.6-1.4,2.4-2.1
		C1114.7,563.8,1115.5,563.1,1116.3,562.4z"/>
	<path class="st0" d="M1185.9,435.9c7-4.4,13.4-9.7,22.4-10.9c5.7,20.3-16.6,42.6-34.5,42.2c0-4.1,0-8.2,0-12.3
		c4.6-0.5,1.4-3.9,2.8-5.7C1179.9,444.9,1182.9,440.4,1185.9,435.9z"/>
	<path class="st0" d="M853.6,303.1c2.4-9.2,7.4-15.7,14.3-21c3.7-2.8,21-7.9,25.8-8.5c4.6-0.7,7.7,1.8,11.6,3.9
		C894.5,295,878.1,303.8,853.6,303.1z"/>
	<path class="st0" d="M1166.3,425c-4.3,0.8-7.6-0.1-11.3-1.5c-14.4-5.5-23.8-14.5-28-27.7c-0.5-1.6-0.7-3.2-1-4.9
		c-0.6-2.9,1.2-4.1,4-3.3c13.7,3.6,26,8.4,32.2,21.2C1164.6,413.9,1168.1,418.5,1166.3,425z"/>
	<path class="st0" d="M1039.3,562c1.3,23.3-10.7,37.6-35.5,44.3c-0.9-3.6-1.3-7.8,0.1-11.6c2.1-5.5,4.4-11.3,8.4-15.7
		C1019,571.8,1026.6,565,1039.3,562z"/>
	<path class="st0" d="M890.4,591.9c-2.2-2.3-4.4-4.8-6.8-6.9c-10.2-9.3-13.6-20.6-12.3-33.1c0.2-2.1,2.1-4.1,3.2-6
		c13.8,5.5,21,16,24.8,27.9c1.9,6.1,0.4,13,0.1,19.5c0,0.3-2.8,0.5-4.2,0.7C895,590.8,892.2,592.2,890.4,591.9z"/>
	<path class="st0" d="M819.9,454.7c4,8.2,3.2,15.2,1.2,23.1c-2.7,10.7-8.2,19.2-17.1,26.4c-2.8,2.3-3.3,1.6-5.1-1.8
		c-3.6-7.3-4-15.4-1.8-22.1c3.1-9.2,7.9-18.8,19.5-23.3C817.8,456.6,818.6,455.7,819.9,454.7z"/>
	<path class="st0" d="M1130.7,539.2c-2.1,0.2-4.7,3.4-6.2-0.3c-2.8-6.7-9.2-12.1-8.4-20.1c0.3-3.1-3.9-6.3-2.1-9.6
		c3.4-5.9,2.2-12.9,6.9-18.6c2.1-2.6,3.4-2.7,5-0.8c8.1,9.5,16.6,22.3,9.7,35.8c-1,2-0.1,4.8-0.1,7.3
		C1131.7,533.7,1130.3,535.9,1130.7,539.2z"/>
	<path class="st0" d="M828.2,488.1c7,7,8,15.5,8.8,23.3c0.5,5.3-0.9,11.7-4.2,17.1c-2.1,3.4-3.8,7-5.8,10.4
		c-1.3,2.1-5.5,2.2-6.1,0.2c-2.8-8.8-9.5-16.9-7.2-26.7C815.7,503.2,818.3,494,828.2,488.1z"/>
	<path class="st0" d="M947.4,606.3c-23.7-8.2-22.9-9.7-30.2-20c-4.7-6.7-6.8-15.3-4.5-24.1c12.5,3.2,21.5,10.2,27.8,19
		C945.9,588.4,950.4,596.8,947.4,606.3z"/>
	<path class="st0" d="M1056.2,594c-1.7-0.3-4.4,1-4.8-1.6c-2.1-16.4,2.8-30.6,17.2-41.8c2.4-1.9,5.4-3.3,8.2-4.9
		c7.7,12.4,2.3,26.7-7.4,37.8c-2.6,3-5.6,5.7-8.4,8.5C1059.2,592.2,1056.4,590.8,1056.2,594z"/>
	<path class="st0" d="M791.9,505.5c-0.4,1.5,1.2,3.7-1.9,4.2c-6.7,1-13.1-0.7-19.1-2.7c-12.6-4.3-23-14.5-26.9-25.6
		c-1.5-4.2,0.1-6.1,5-5.4c7.7,1.2,14.6,4.5,21.6,7.5c9,3.9,12.5,11.8,18.8,17.7C789.8,502.9,788.3,505.3,791.9,505.5z"/>
	<path class="st0" d="M815.9,543.4c-0.8,2.5-2.4,4-5.6,4.3c-18,1.4-38.7-8.9-46.2-25.3c-1.2-2.7,1.3-3.4,2-3.6
		c2.6-0.6,5.6-1.2,8-0.6c9.6,2.5,19.9,3.7,27,11c1,1,3.4,1,5.2,1.5c0.4,1.6-1.2,4,2.4,4.2c0.8,0.7,1.6,1.4,2.4,2.1
		c0.8,0.7,1.6,1.4,2.4,2.1C813.9,540.8,812.3,543.2,815.9,543.4z"/>
	<path class="st0" d="M1109.1,309.5c-0.6-1.5-0.6-3.6-1.8-4.6c-7.6-6.5-10.4-14.5-10.3-23.6c0-3.8,0-7.6,0-12.5
		c3.8,1.5,7.2,2.1,9.5,3.8c4.8,3.6,9.8,7.4,13.4,11.9c3.9,4.8,5,11,5.6,16.7c0.5,4.5,0.2,9.1-1.6,13.9c-2.4,6.2-4.1-1.4-5.3,0.6
		c-0.8-0.7-1.6-1.4-2.4-2.1c-0.2-3.2-3-1.8-4.8-2.1C1110.7,310.9,1109.9,310.2,1109.1,309.5z"/>
	<path class="st0" d="M852,568.7c-3.1-5.6-8.2-9.9-10.6-16.1c-2-5.3-0.6-10.2-1.4-15.2c-0.8-5.2,0.8-9.8,4.6-14.1
		c3.2-3.6,3-4.3,5.9-1c5.4,6.3,10.6,12.8,11.2,21.2c0.1,2.2,2,4.3,2.2,6.5c0.5,7.1-2.4,13.6-5.2,20.1c-0.3,0.6-2.8,0.5-4.3,0.8
		C853.6,570.1,852.8,569.4,852,568.7z"/>
	<path class="st0" d="M1131.7,455.3c12.6,4.1,18.4,14,22.3,23.8c3.1,7.8,1.3,16.9-1.8,25.1c-0.2,0.7-3.2,1.4-3.6,1
		c-8.4-6.9-15-14.9-17.9-24.9c-0.8-2.9-1.8-5.7-2.4-8.6C1127.1,465.8,1129.7,460.4,1131.7,455.3z"/>
	<path class="st0" d="M1097,570.8c-1.7-0.3-4,1-4.8-1.7c-1.5-5-4.3-10-4.5-15.1c-0.2-5.5,0.8-11.5,3.2-16.6
		c2.5-5.3,4.6-11.2,9.9-15.3c0.6-0.5,1.1-1.4,1.7-1.4c1.3-0.1,3.8,0,3.9,0.5c1.6,5,6.3,9.2,5.1,15c-1.1,5.3,0.4,10.6-1.5,16.2
		c-2.2,6.4-7.4,10.6-10.5,16.2C1098.6,569.4,1097.8,570.1,1097,570.8z"/>
	<path class="st0" d="M1116.3,320c-0.3,1.5,1.1,3.5-1.9,4.2c-17,4.3-33,3-47.4-6.5c-2.9-1.9-7.8-1.9-8.4-6.1
		c-0.2-1.2,9.9-6.3,13-6.3c9.9,0,20.1-1.3,29.1,4.1c0.8,0.5,2.3,0.1,3.5,0.1c0.8,0.7,1.6,1.4,2.4,2.1c0.8,0.7,1.6,1.4,2.4,2.1
		c0.8,0.7,1.6,1.4,2.4,2.1c0.8,0.7,1.6,1.4,2.4,2.1C1114.7,318.6,1115.5,319.3,1116.3,320z"/>
	<path class="st0" d="M847.2,309.5c1.5-0.2,3.1-0.2,4.4-0.8c11.7-4.7,23.5-4.8,35.6-1.3c1.7,0.5,3.6,1.3,4.7,2.5
		c0.7,0.7,0.6,3.1,0.1,3.4c-8.3,3.6-14.5,10-24.5,11.5c-9.8,1.5-23.5,2.4-31.4-1c-0.8-0.3-0.6-2.5-0.9-3.8c0.8-0.7,1.6-1.4,2.4-2.1
		c0.8-0.7,1.6-1.4,2.4-2.1c0.8-0.7,1.6-1.4,2.4-2.1c0.8-0.7,1.6-1.4,2.4-2.1C845.6,310.9,846.4,310.2,847.2,309.5z"/>
	<path class="st0" d="M784.7,425.4c2.6-20.6,11.8-30.3,29.6-35.8c1.1-0.3,2.7,0,3.3-0.5c2.3-2.1,5.5-2.6,7.1-0.9
		c1.4,1.5,1.1,4.7,0.5,6.8c-3.5,11.9-19.6,26.9-32.5,30.3C790.6,425.9,788,425.4,784.7,425.4z"/>
	<path class="st0" d="M1156.8,387.7c-21.4-0.2-36.7-8.4-47.7-23.2c-2.7-3.7-1.4-6.4,3.1-6.5c6.1-0.2,12.1-0.1,18.2,1.9
		c13.1,4.5,22.4,11.9,26.7,23.8C1157.4,384.7,1157,385.8,1156.8,387.7z"/>
	<path class="st0" d="M1097,303.4c-21.6-0.5-38.2-7.2-49.2-23.3c-2-3-2.1-4.2,2.4-4.4c1.7-0.1,3.5-2.1,5-1.9
		c7.3,1.2,15.5,1.4,21.5,4.7c8.5,4.6,16,11,20.2,19.4C1097.5,299.1,1097,300.7,1097,303.4z"/>
	<path class="st0" d="M1133.1,427.2c0-1.1-0.1-2.1,0-3.2c0.1-2.3,3.5-4,5.8-2.8c2.3,1.2,4.3,2.7,6.4,4.2
		c9.5,6.5,18.2,13.5,19.1,25.1c0.1,1.8,1.5,3.6,2.3,5.4c1.4,3.2-1.8,5.3-2.6,7.9c-0.2,0.7-2.3,1.3-3.6,1.3c-0.9,0-1.7-1.3-2.7-1.9
		C1142.6,455,1134,443.2,1133.1,427.2z"/>
	<path class="st0" d="M1140.3,347.4c-0.3,6.2-0.3,6.2-5.5,6.3c-2.8,0-5.6-0.2-8.4,0c-11.9,1-21.2-3.9-30-10c-2.2-1.6-4.6-3-6.6-4.8
		c-1.8-1.6-3.1-3.6-4.6-5.5c12.8-6.2,37.7-3.3,46.4,7.3c1.5,1.8,4.1,3,6.2,4.5C1138.7,346,1139.5,346.7,1140.3,347.4z"/>
	<path class="st0" d="M813.5,345.3c2.1-1.5,4.5-2.7,6.2-4.5c7.6-7.7,17.4-10.5,28.6-10.3c6.1,0.1,12.4-0.9,17.6,2.9
		c-5.1,4.6-9.5,10.1-15.5,13.8c-11.1,6.9-24.3,7.6-37.5,6.3c-3.9-0.4-1.1-4.1-1.9-6.2C811.9,346.7,812.7,346,813.5,345.3z"/>
	<path class="st0" d="M1133.1,334.8c-4.3-2.7-9.6-4.8-9.6-10.5C1127.8,327,1133.1,329,1133.1,334.8z"/>
	<path class="st0" d="M835.1,320c-0.8,0-1.6,0-2.4,0c0-1.4,0-2.8,0-4.2c0.8-0.7,1.6-1.4,2.4-2.1c1.6,0,3.2,0,4.8,0
		c0,0.7,0,1.4,0,2.1c-0.8,0.7-1.6,1.4-2.4,2.1C836.7,318.6,835.9,319.3,835.1,320z"/>
	<path class="st0" d="M1118.7,320c-0.8,0-1.6,0-2.4,0c-0.8-0.7-1.6-1.4-2.4-2.1c-0.8-0.7-1.6-1.4-2.4-2.1c0-0.7,0-1.4,0-2.1
		c1.6,0,3.2,0,4.8,0c0.8,0.7,1.6,1.4,2.4,2.1C1118.7,317.2,1118.7,318.6,1118.7,320z"/>
	<path class="st0" d="M1137.9,341.1c-3.8-0.8-5.2-3.1-4.8-6.3c1.6,0.7,3.2,1.4,4.8,2.1C1137.9,338.3,1137.9,339.7,1137.9,341.1z"/>
	<path class="st0" d="M825.5,326.4c0.4,3.3-1,5.5-4.8,6.3C820.3,329.4,821.7,327.2,825.5,326.4z"/>
	<path class="st0" d="M1121.1,322.2c-0.8-0.7-1.6-1.4-2.4-2.1C1119.5,320.7,1120.3,321.4,1121.1,322.2z"/>
	<path class="st0" d="M832.7,320c-0.8,0.7-1.6,1.4-2.4,2.1C831.1,321.4,831.9,320.7,832.7,320z"/>
	<path class="st0" d="M827.9,324.3c-0.8,0.7-1.6,1.4-2.4,2.1C826.3,325.7,827.1,325,827.9,324.3z"/>
	<path class="st0" d="M1184.9,435.9c-0.4-0.4-0.7-0.8-1.1-1.2c0.5-0.1,1.3-0.5,1.5-0.3c0.4,0.4,0.5,1.1,0.7,1.6
		C1185.6,435.9,1185.2,435.9,1184.9,435.9z"/>
	<path class="st0" d="M818.3,334.8c0.8-0.7,1.6-1.4,2.4-2.1C819.9,333.4,819.1,334.1,818.3,334.8z"/>
	<ellipse class="st0" cx="1107.9" cy="310.6" rx="1.7" ry="1.5"/>
	<path class="st0" d="M1104.2,309.5c0-0.7,0-1.4,0-2.1c0.8,0.7,1.6,1.4,2.4,2.1C1105.9,309.5,1105.1,309.5,1104.2,309.5z"/>
	<path class="st0" d="M1101.8,305.3c0.8,0.7,1.6,1.4,2.4,2.1C1103.4,306.7,1102.6,306,1101.8,305.3z"/>
	<path class="st0" d="M830.3,322.2c-0.8,0.7-1.6,1.4-2.4,2.1C828.7,323.6,829.5,322.9,830.3,322.2z"/>
	<path class="st0" d="M847.2,307.4c0.8-0.7,1.6-1.4,2.4-2.1C848.8,306,848,306.7,847.2,307.4z"/>
	<path class="st0" d="M1121.1,322.2c0.8,0.7,1.6,1.4,2.4,2.1C1122.7,323.6,1121.9,322.9,1121.1,322.2z"/>
	<path class="st0" d="M1100.8,305.3c-0.4-0.4-0.7-0.8-1.1-1.2c0.5-0.1,1.3-0.5,1.5-0.3c0.4,0.4,0.5,1.1,0.7,1.6
		C1101.5,305.3,1101.1,305.3,1100.8,305.3z"/>
	<path class="st0" d="M851,303.4c0.3,0.2,0.8,0.6,0.7,0.7c-0.3,0.5-0.7,0.9-1.1,1.3c-0.4-0.3-0.7-0.6-1.1-0.9
		C850,304,850.5,303.7,851,303.4z"/>
	<path class="st0" d="M961.4,613c-2.5,2.1-3.8,4.1-5,4c-4-0.1-7.4,0.9-11,2.1c-2.1,0.7-1.8-0.8-0.7-2.2c1.8-2.2-0.9-1.4-1.9-1.8
		c-0.7-0.3-1.3-0.7-1.9-1c0.4-0.3,0.8-1,1.2-1C947.9,612.9,953.8,613,961.4,613z"/>
	<path class="st0" d="M1010.1,613c1.5,3.6-7,0.1-2.7,4.8c0.1,0.1-1.2,1.5-1.5,1.4c-1.7-0.5-3.3-1.3-5-2c-2.4-0.9-7.5,2.4-7-2.6
		c0.4-3.3,4.6-1.3,7-1.5C1004.1,612.7,1007.4,613,1010.1,613z"/>
	<path class="st0" d="M1130.7,539.2c-0.4-3.3,1-5.5,4.8-6.3C1135.9,536.2,1134.5,538.4,1130.7,539.2z"/>
	<path class="st0" d="M1162.1,374.9c-0.5,0.8-0.8,1.3-1.2,1.9c-0.5-1-1-2-1.3-3.1c-0.1-0.2,0.7-0.6,1.1-1
		C1161.1,373.5,1161.7,374.3,1162.1,374.9z"/>
	<path class="st0" d="M808.7,535c-3.6-0.2-2-2.6-2.4-4.2C809.9,531,808.3,533.4,808.7,535z"/>
	<path class="st0" d="M1013,610.7c0.9,0.4,1.5,0.7,2.1,1c-1.2,0.4-2.3,0.9-3.5,1.2c-0.3,0.1-0.7-0.6-1.1-0.9
		C1011.4,611.5,1012.3,611.1,1013,610.7z"/>
	<path class="st0" d="M938.7,613.4c-1-0.7-1.7-1.2-2.4-1.6c1-0.3,2-0.8,2.9-0.8c0.5,0,1.1,0.7,1.7,1.1
		C940.2,612.4,939.5,612.8,938.7,613.4z"/>
	<path class="st0" d="M1056.2,594c0.2-3.2,3-1.8,4.8-2.1C1060.8,595,1058,593.7,1056.2,594z"/>
	<path class="st0" d="M890.4,591.9c1.8,0.3,4.6-1,4.8,2.1C893.4,593.7,890.6,595,890.4,591.9z"/>
	<path class="st0" d="M815.9,543.4c-3.6-0.2-2-2.6-2.4-4.2C817.1,539.4,815.6,541.8,815.9,543.4z"/>
	<path class="st0" d="M1161.9,501.3c-0.4,1.6,1.2,4-2.4,4.2C1159.9,503.9,1158.3,501.5,1161.9,501.3z"/>
	<path class="st0" d="M791.9,505.5c-3.6-0.2-2-2.6-2.4-4.2C793.1,501.5,791.5,503.9,791.9,505.5z"/>
	<path class="st0" d="M1162.6,384.1c-0.2-1.9-0.4-3-0.4-4.2c0-0.1,1-0.2,1.5-0.4c0.2,0.9,0.5,1.8,0.6,2.7
		C1164.3,382.6,1163.7,383,1162.6,384.1z"/>
	<path class="st0" d="M786.9,381.4c0.4-0.7,0.9-1.5,1.4-2.4c0.4,0.5,1.2,1.1,1.1,1.6c-0.1,0.9-0.7,1.8-1.1,2.6
		C787.9,382.7,787.5,382.2,786.9,381.4z"/>
	<path class="st0" d="M1145.1,347.4c0.8,0.7,1.6,1.4,2.4,2.1C1146.7,348.8,1145.9,348.1,1145.1,347.4z"/>
	<path class="st0" d="M803.9,349.5c0.8-0.7,1.6-1.4,2.4-2.1C805.5,348.1,804.7,348.8,803.9,349.5z"/>
	<path class="st0" d="M1142.7,347.4c0.5-0.6,1.1-1.2,1.6-1.7c0.3,0.6,0.5,1.2,0.8,1.7C1144.3,347.4,1143.5,347.4,1142.7,347.4z"/>
	<path class="st0" d="M806.3,347.4c0.5-0.6,1.1-1.2,1.6-1.7c0.3,0.6,0.5,1.2,0.8,1.7C807.9,347.4,807.1,347.4,806.3,347.4z"/>
	<path class="st0" d="M1145.1,531.7c-0.5,0.3-0.9,0.6-1.4,1c-0.1-0.4-0.5-1.2-0.4-1.3c0.5-0.3,1.2-0.4,1.8-0.6
		C1145.1,531.1,1145.1,531.4,1145.1,531.7z"/>
	<path class="st0" d="M811.1,537.1c-0.8-0.7-1.6-1.4-2.4-2.1C809.5,535.7,810.3,536.4,811.1,537.1z"/>
	<path class="st0" d="M1141.7,535.2c0.3,0.2,0.8,0.6,0.7,0.7c-0.3,0.5-0.7,0.9-1.1,1.3c-0.4-0.3-0.7-0.6-1.1-0.9
		C1140.8,535.8,1141.2,535.5,1141.7,535.2z"/>
	<path class="st0" d="M813.5,539.2c-0.8-0.7-1.6-1.4-2.4-2.1C811.9,537.8,812.7,538.5,813.5,539.2z"/>
	<path class="st0" d="M1140.3,538c-0.5,0.3-0.9,0.6-1.4,1c-0.1-0.4-0.5-1.2-0.4-1.3c0.5-0.3,1.2-0.4,1.8-0.6
		C1140.3,537.4,1140.3,537.7,1140.3,538z"/>
	<path class="st0" d="M1136.9,541.5c0.3,0.2,0.8,0.6,0.7,0.7c-0.3,0.5-0.7,0.9-1.1,1.3c-0.4-0.3-0.7-0.6-1.1-0.9
		C1136,542.1,1136.4,541.8,1136.9,541.5z"/>
	<path class="st0" d="M837.5,564.5c-0.8-0.7-1.6-1.4-2.4-2.1C835.9,563.1,836.7,563.8,837.5,564.5z"/>
	<path class="st0" d="M1116.3,562.4c-0.8,0.7-1.6,1.4-2.4,2.1C1114.7,563.8,1115.5,563.1,1116.3,562.4z"/>
	<path class="st0" d="M839.7,565.7c-0.3,0.2-0.7,0.7-0.8,0.6c-0.5-0.2-1-0.6-1.4-0.9c0.4-0.3,0.7-0.6,1.1-0.9
		C839,564.9,839.4,565.3,839.7,565.7z"/>
	<path class="st0" d="M1113.9,564.5c-0.8,0.7-1.6,1.4-2.4,2.1C1112.3,565.9,1113.1,565.2,1113.9,564.5z"/>
	<path class="st0" d="M1111.5,566.6c-0.8,0.7-1.6,1.4-2.4,2.1C1109.9,568,1110.7,567.3,1111.5,566.6z"/>
	<path class="st0" d="M843.7,570.8c-0.4-0.4-0.7-0.8-1.1-1.2c0.5-0.1,1.3-0.5,1.5-0.3c0.4,0.4,0.5,1.1,0.7,1.6
		C844.4,570.8,844,570.8,843.7,570.8z"/>
	<path class="st0" d="M852,568.7c0.8,0.7,1.6,1.4,2.4,2.1C853.6,570.1,852.8,569.4,852,568.7z"/>
	<path class="st0" d="M1097,570.8c0.8-0.7,1.6-1.4,2.4-2.1C1098.6,569.4,1097.8,570.1,1097,570.8z"/>
	<path class="st0" d="M1109.1,568.7c-0.8,0.7-1.6,1.4-2.4,2.1C1107.5,570.1,1108.3,569.4,1109.1,568.7z"/>
	<path class="st0" d="M847.2,572.9c-0.8-0.7-1.6-1.4-2.4-2.1C845.6,571.5,846.4,572.2,847.2,572.9z"/>
	<path class="st0" d="M1106.7,570.8c-0.8,0.7-1.6,1.4-2.4,2.1C1105.1,572.2,1105.9,571.5,1106.7,570.8z"/>
	<path class="st0" d="M1067,594c0.3,0.5,0.6,0.9,0.8,1.4c0,0.2-0.5,0.5-0.8,0.7c-0.3-0.5-0.6-0.9-0.8-1.4
		C1066.2,594.5,1066.7,594.2,1067,594z"/>
	<path class="st0" d="M889.3,598.2c-0.4-0.4-0.7-0.8-1.1-1.2c0.5-0.1,1.3-0.5,1.5-0.3c0.4,0.4,0.5,1.1,0.7,1.6
		C890,598.2,889.7,598.2,889.3,598.2z"/>
	<path class="st0" d="M1062.4,596.3c0.3,0.2,0.8,0.6,0.7,0.7c-0.3,0.5-0.7,0.9-1.1,1.3c-0.4-0.3-0.7-0.6-1.1-0.9
		C1061.5,596.9,1061.9,596.6,1062.4,596.3z"/>
	<path class="st0" d="M939.9,621.6c0.3,0.2,0.8,0.6,0.7,0.7c-0.3,0.5-0.7,0.9-1.1,1.3c-0.4-0.3-0.7-0.6-1.1-0.9
		C938.9,622.2,939.4,621.9,939.9,621.6z"/>
	<path class="st0" d="M789.8,375.6c0.3-0.3,0.6-0.5,0.9-0.7c0.3,0.5,0.6,0.9,0.8,1.4c0,0.2-0.5,0.5-0.8,0.7
		C790.4,376.5,790.1,376,789.8,375.6z"/>
	<path class="st0" d="M813.5,345.3c-0.8,0.7-1.6,1.4-2.4,2.1C811.9,346.7,812.7,346,813.5,345.3z"/>
	<path class="st0" d="M811.1,342.1c-0.5,0.3-0.9,0.6-1.4,1c-0.1-0.4-0.5-1.2-0.4-1.3c0.5-0.3,1.2-0.4,1.8-0.6
		C811.1,341.4,811.1,341.7,811.1,342.1z"/>
	<path class="st0" d="M811.1,341.1c0.5-0.6,1.1-1.2,1.6-1.7c0.3,0.6,0.5,1.2,0.8,1.7C812.7,341.1,811.9,341.1,811.1,341.1z"/>
	<path class="st0" d="M1137.9,341.1c0-1.4,0-2.8,0-4.2c3.6,0.2,2,2.6,2.4,4.2C1139.5,341.1,1138.7,341.1,1137.9,341.1z"/>
	<path class="st0" d="M1140.3,347.4c-0.8-0.7-1.6-1.4-2.4-2.1C1138.7,346,1139.5,346.7,1140.3,347.4z"/>
	<path class="st0" d="M1142.5,342.3c-0.3,0.2-0.7,0.7-0.8,0.6c-0.5-0.2-1-0.6-1.4-0.9c0.4-0.3,0.7-0.6,1.1-0.9
		C1141.7,341.5,1142.1,341.9,1142.5,342.3z"/>
	<path class="st0" d="M839.9,313.7c-1.6,0-3.2,0-4.8,0c0.2-3.2,3-1.8,4.8-2.1C839.9,312.3,839.9,313,839.9,313.7z"/>
	<path class="st0" d="M835.1,313.7c-0.8,0.7-1.6,1.4-2.4,2.1C833.5,315.1,834.3,314.4,835.1,313.7z"/>
	<path class="st0" d="M844.8,311.6c-0.8,0.7-1.6,1.4-2.4,2.1c0-0.7,0-1.4,0-2.1C843.1,311.6,843.9,311.6,844.8,311.6z"/>
	<path class="st0" d="M847.2,309.5c-0.8,0.7-1.6,1.4-2.4,2.1C845.6,310.9,846.4,310.2,847.2,309.5z"/>
	<path class="st0" d="M839.9,311.6c0.5-0.6,1.1-1.2,1.6-1.7c0.3,0.6,0.5,1.2,0.8,1.7C841.5,311.6,840.7,311.6,839.9,311.6z"/>
	<path class="st0" d="M1116.3,313.7c-1.6,0-3.2,0-4.8,0c0-0.7,0-1.4,0-2.1C1113.3,311.9,1116.1,310.6,1116.3,313.7z"/>
	<path class="st0" d="M1118.7,315.8c-0.8-0.7-1.6-1.4-2.4-2.1C1117.1,314.4,1117.9,315.1,1118.7,315.8z"/>
	<path class="st0" d="M1109.1,311.6c0-0.7,0-1.4,0-2.1c0.8,0.7,1.6,1.4,2.4,2.1C1110.7,311.6,1109.9,311.6,1109.1,311.6z"/>
	<path class="st0" d="M1113.9,317.9c0.8,0.7,1.6,1.4,2.4,2.1C1115.5,319.3,1114.7,318.6,1113.9,317.9z"/>
	<path class="st0" d="M1111.5,315.8c0.8,0.7,1.6,1.4,2.4,2.1C1113.1,317.2,1112.3,316.5,1111.5,315.8z"/>
	<path class="st0" d="M1111.5,313.7c0,0.7,0,1.4,0,2.1c-0.8-0.7-1.6-1.4-2.4-2.1C1109.9,313.7,1110.7,313.7,1111.5,313.7z"/>
	<path class="st0" d="M1106.7,311.6c0.8,0,1.6,0,2.4,0c0,0.7,0,1.4,0,2.1C1108.3,313,1107.5,312.3,1106.7,311.6z"/>
	<path class="st0" d="M1104.2,309.5c0.8,0,1.6,0,2.4,0c0,0.7,0,1.4,0,2.1C1105.9,310.9,1105.1,310.2,1104.2,309.5z"/>
	<path class="st0" d="M835.1,320c0.8-0.7,1.6-1.4,2.4-2.1C836.7,318.6,835.9,319.3,835.1,320z"/>
	<path class="st0" d="M837.5,317.9c0.8-0.7,1.6-1.4,2.4-2.1C839.1,316.5,838.3,317.2,837.5,317.9z"/>
	<path class="st0" d="M839.9,315.8c0-0.7,0-1.4,0-2.1c0.8,0,1.6,0,2.4,0C841.5,314.4,840.7,315.1,839.9,315.8z"/>
	<ellipse class="st0" cx="841.1" cy="312.7" rx="1.7" ry="1.5"/>
	<ellipse class="st0" cx="1110.3" cy="312.7" rx="1.7" ry="1.5"/>
</g>
<rect x="809" y="402.6" class="st1" width="339" height="140.4"/>
<text transform="matrix(1 0 0 1 833.666 428.5967)"><tspan x="0" y="0" class="st2 st3">Hamilton State </tspan><tspan x="44.6" y="31.2" class="st2 st3">University </tspan><tspan x="124.4" y="62.4" class="st2 st3">of </tspan><tspan x="38.1" y="93.6" class="st2 st3">Technology</tspan></text>
</svg>
