<?xml version="1.0" encoding="utf-8"?>
<!-- Generator: Adobe Illustrator 25.1.0, SVG Export Plug-In . SVG Version: 6.00 Build 0)  -->
<svg version="1.1" id="Livello_1" xmlns="http://www.w3.org/2000/svg" xmlns:xlink="http://www.w3.org/1999/xlink" x="0px" y="0px"
	 viewBox="0 0 1920 1080" style="enable-background:new 0 0 1920 1080;" xml:space="preserve">
<style type="text/css">
	.st0{fill:none;}
	.st1{font-family:'GlitchInside';}
	.st2{font-size:100px;}
	.st3{fill:#818282;stroke:#000000;stroke-miterlimit:10;}
	.st4{font-size:81px;}
</style>
<g>
	<path d="M891.7,285.7c-1.6,3.7-2.5,6.4-3.8,8.9c-1.2,2.3-0.5,3.2,1.8,4.3c15.7,7.5,32.4,12.2,49.8,14.6c20.8,2.9,41.7,2.8,62.2-2
		c11.1-2.6,21.6-6.6,31.2-12.6c2.1-1.3,2.7-2.4,1.6-4.5c-1.3-2.4-2.1-5-3.4-8.1c3.4,0.2,6.3,0.1,9.1,0.4c8.4,1.1,16.8,2.2,25.1,3.7
		c3.1,0.6,6.2,2.1,8.9,3.7c4.4,2.7,5.2,6.5,2,10.3c-2.6,3-5.8,5.6-9.2,7.8c-10.2,6.5-21.7,10.6-33.5,14c-3.5,1-4.3,2.5-4.3,5.6
		c-0.4,19.7-3.1,39-11.4,57.5c-2,4.4-1.7,9.6,2.3,14c13.6,14.8,29.7,26.4,49.1,33.6c2.4,0.9,2.5,1.8,1.6,3.8
		c-4.7,9.8-10.1,19.1-19.4,25.8c-0.6,0.4-0.9,2-0.5,2.5c4.9,8,10.8,15.2,20.1,19.2c2.5,1.1,2.9,2.4,2.9,4.6
		c0,10.5-2.7,20.4-7.8,29.7c-2.2,4-4.8,7.8-6.9,11.8c-1.5,2.8-3.4,3.7-6.8,3.7c-41.7-0.1-83.4-0.1-125-0.1c-19,0-38,0-57,0.1
		c-2.6,0-4.1-0.7-5.4-2.8c-6.5-10.2-12.6-20.5-14.4-32.5c-0.5-3.5-0.5-7.1-0.8-10.6c-0.2-1.9,0.8-2.9,2.7-3.7
		c9.4-4.1,15.4-11.3,20.4-19.4c0.4-0.6,0-2.1-0.6-2.5c-9.3-6.8-14.7-16.1-19.5-25.8c-1-2-0.8-2.9,1.6-3.8
		c19.7-7.4,35.8-19.3,49.4-34.5c3.6-4.1,4-8.9,2.1-13c-8.5-18.9-11.1-38.7-11.4-58.9c0-2.6-1.1-3.3-3.4-4.1
		c-10.4-3.9-20.8-7.9-31-12.3c-3.9-1.7-7.4-4.5-10.6-7.4c-6.1-5.6-5.1-11,2.7-14.2c4.6-1.9,9.5-3.2,14.5-4
		C874.3,287.3,882.5,286.7,891.7,285.7z M897.6,328.6c-0.1,1.2-0.2,1.9-0.2,2.6c0.1,14,1.9,27.8,6.4,41.2
		c4.9,14.8,12.4,28.2,25.4,38.3c12.2,9.5,26.2,13.7,42.1,10.5c13.5-2.7,23.9-10,32.2-20c10.9-13.1,16.7-28.2,19.5-44.4
		c1.6-9.2,2.1-18.5,3.2-28.5c-21.9,5.5-42.9,8-64.4,8C940.2,336.4,919,334.1,897.6,328.6z M915.9,442.2c0.1,0.9,0.1,1.4,0.3,2
		c10.1,28.8,20.2,57.6,30.3,86.4c0.7,1.9,1.6,2.6,3.8,2.5c7.2-0.1,14.4-0.2,21.6,0c2.9,0.1,4.1-0.9,5-3.4
		c9.8-28.2,19.7-56.3,29.5-84.4c0.3-0.9,0.5-1.8,1-3.6C981.5,471.5,942.9,473,915.9,442.2z"/>
	<path d="M968.9,312.1c-27.5-0.5-51.3-4.7-73.9-14.4c-3-1.3-3.6-2.5-2.3-5.5c8.3-19.4,13.3-39.6,17.4-60.1c1.1-5.4,3.9-10.7,7-15.5
		c3.9-5.9,9.9-6.9,16.6-3.9c3,1.3,5.7,3,8.5,4.7c12.7,7.7,25.4,7.8,38,0c2.4-1.5,4.9-3,7.4-4.3c7.5-3.7,13.7-2.2,18.4,4.3
		c3.7,5.2,5.8,10.9,6.9,17.1c3.5,20.1,9,39.7,17.1,58.7c1,2.4,0.2,3.3-1.8,4.4c-12.6,7.3-26.5,11.2-41,13
		C980.3,311.5,973.2,311.8,968.9,312.1z"/>
	<path d="M862.2,538c-13.9,0-27.1,0-40.3,0c-7.6,0-15.2-0.1-22.8,0c-2.3,0-3.1-0.6-3.1-2.8c0.2-16.3,3.7-31.7,14-45.2
		c0.8-1.1,2-2.3,3.2-2.8c16-5.8,29.9-14.8,43.2-24.7c2.8-2.1,4.5-2.3,6.5,0.6c0.7,1,1.7,1.7,2.6,2.6c3.3,3,3.4,3,0.6,6.7
		c-4.8,6.2-10.3,11.7-18.4,14.3c-0.8,0.3-1.6,1.9-1.7,2.9c-0.9,13.2,2.7,25.5,9.4,37.1C857.5,530.3,859.7,533.8,862.2,538z"/>
	<path d="M1060.9,538c2.7-4.7,5.2-8.6,7.4-12.7c6-10.9,9.3-22.4,8.8-34.8c-0.1-2.4-0.7-3.6-3.3-4.6c-8.6-3-14-9.4-18.8-16.4
		c-0.3-0.4,0-1.5,0.4-2c1.1-1.3,2.6-2.3,3.8-3.5c3.9-3.8,3.9-3.8,8.3-0.7c13.2,9.5,26.8,18.3,42.4,23.9c1,0.4,1.9,1.2,2.5,2
		c10.7,13.9,14.4,29.7,14.5,46.5c0,2.7-1.9,2.3-3.6,2.3c-14.9,0-29.9,0-44.8,0C1072.9,538,1067.2,538,1060.9,538z"/>
</g>
<rect x="511" y="317" class="st0" width="908" height="162"/>
<text transform="matrix(1 0 0 1 576.9385 376.2891)"><tspan x="0" y="0" class="st1 st2">rogu</tspan><tspan x="288.9" y="0" class="st3 st1 st2">e g</tspan><tspan x="461.3" y="0" class="st1 st2">ames </tspan><tspan x="212.4" y="97.2" class="st1 st4">s</tspan><tspan x="266.5" y="97.2" class="st3 st1 st4">tudio</tspan><tspan x="509.6" y="97.2" class="st1 st4">s</tspan></text>
</svg>
