<?xml version="1.0" encoding="utf-8"?>
<!-- Generator: Adobe Illustrator 24.3.0, SVG Export Plug-In . SVG Version: 6.00 Build 0)  -->
<svg version="1.1" id="Livello_1" xmlns="http://www.w3.org/2000/svg" xmlns:xlink="http://www.w3.org/1999/xlink" x="0px" y="0px"
	 viewBox="0 0 1920 1080" style="enable-background:new 0 0 1920 1080;" xml:space="preserve">
<style type="text/css">
	.st0{fill:#00FFEC;stroke:#000000;stroke-width:6;stroke-miterlimit:10;}
	.st1{fill:#FCCD03;}
	.st2{fill:none;}
	.st3{fill:#FFFFFF;}
	.st4{font-family:'BodoniSvtyTwoITCTT-Book';}
	.st5{font-size:72px;}
</style>
<rect x="331" y="227" class="st0" width="1399" height="343"/>
<g>
	<path class="st1" d="M515.4,289.7c5.7,1.8,11.3,3.7,16.9,5.4c9.8,2.9,19.6,5.9,29.4,8.4c11.5,3,23,4.9,34.8,4.1
		c1.1-0.1,2.3-0.2,3.4-0.3c1.1-0.2,2.3-0.4,3.6-0.3c-0.8,1.1-1.5,2.3-2.4,3.2c-3.3,3.6-7.2,5.5-11.5,6.9c-7.6,2.6-15.1,1.7-22.6-0.1
		c-12.5-2.9-24.6-7.3-36.6-12.2c-5.5-2.2-10.9-4.6-16.3-6.9c-0.2-0.1-0.5-0.2-0.9-0.3c0,1.5,0,2.8,0,4.1c0,0.3,0.4,0.7,0.7,0.8
		c12.9,5.2,25.4,11.6,38.6,15.5c6.8,2.1,13.8,3.7,20.7,5.3c4.6,1,9.2,0.2,13.8-0.5c0.8-0.1,1.5-0.2,2.3-0.4c0.1,0.1,0.2,0.2,0.3,0.4
		c-1.4,1.5-2.6,3.2-4.1,4.6c-5.6,5.1-12.1,6.9-19.1,6.7c-7.7-0.3-14.9-3-21.9-6.3c-9.9-4.7-19.3-10.5-28.5-16.9
		c-0.7-0.5-1.3-0.9-2.1-1.4c0.2,1.8,0.3,3.3,0.5,4.8c0,0.3,0.3,0.7,0.5,0.9c9.4,7,18.7,14,29.2,18.7c5.3,2.4,10.8,3.9,16.8,4.9
		c-0.8,0.3-1.3,0.5-1.8,0.7c-6.2,1.7-12.5,2-18.8,1.1c-5.6-0.8-10.6-3.6-15.2-7.2c-4.2-3.4-8.3-7.1-12.4-10.7
		c-0.6,0.9-1.4,1.9-2.3,3.2c6.7,7.8,13.9,14.5,22.8,18.7c-2,0.2-3.9,0.6-5.9,0.7c-4.3,0.2-8.5,0.3-12.7-0.8
		c-5.8-1.5-9.7-5.5-12-11.9c-0.3-0.8-0.5-1.5-0.8-2.3c-3.4,0-6.8,0-10.4,0c0,0.4-0.1,1-0.1,1.6c-0.3,15.9-0.5,31.9-0.7,47.8
		c0,1-0.4,1.3-1.1,1.7c-2.2,1.3-4.1,0.2-6.2-0.4c-2.4-0.8-2.5-0.8-2.5-3.7c-0.2-15.3-0.5-30.5-0.7-45.8c0-0.6,0-1.1,0-1.4
		c-3.2,0.1-6.1,0.4-9.1,0.4c-2.4,0-2.4-0.1-3.3,2.4c-2.7,7.5-7.7,11.1-14.3,12.1c-5.3,0.8-10.6,0.5-15.9-0.5c-0.1,0-0.2-0.1-0.3-0.2
		c8.9-4,16.1-10.7,22.8-18.5c-0.8-1.2-1.6-2.3-2.3-3.4c-3.3,3-6.5,6-9.8,8.8c-4.8,4-9.7,7.6-15.6,8.8c-7.3,1.5-14.6,1.1-21.8-1
		c-0.2-0.1-0.4-0.2-0.8-0.4c2.3-0.5,4.4-0.9,6.5-1.5c8.9-2.2,17-6.5,24.8-11.9c4.7-3.3,9.4-6.7,14.1-10c0.7-0.5,1-1.1,1-2.1
		c0-1.2,0.2-2.5,0.4-3.9c-0.5,0.3-0.9,0.5-1.2,0.8c-8.6,5.9-17.4,11.6-26.6,16.1c-6.9,3.4-14,6.5-21.5,7.4c-8.3,1-16.1-0.5-22.8-6.8
		c-1.3-1.2-2.4-2.8-3.6-4.1c0.1-0.1,0.1-0.2,0.2-0.2c3.1,0.3,6.2,0.7,9.2,1c5.6,0.6,11-0.9,16.4-2.2c13.3-3.2,26.1-8.6,38.7-14.1
		c3.4-1.5,6.8-3,10.3-4.3c1.3-0.5,1.9-1.3,1.7-2.9c-0.1-0.7-0.1-1.4-0.1-2.4c-1.4,0.6-2.7,1.2-4,1.7c-14.7,6.4-29.5,12.4-44.8,16.4
		c-5.3,1.4-10.7,2.5-16.1,2.9c-8,0.5-15.5-1.7-22-7.6c-1.3-1.1-2.2-2.7-3.6-4.3c3.1,0.3,5.7,0.9,8.4,0.8c5.7-0.1,11.5-0.2,17.1-0.8
		c13.6-1.6,26.7-5.9,39.8-9.8c7.2-2.1,14.3-4.5,21.4-6.8c0.5-0.2,1.1-0.4,1.7-0.6c-0.1-0.4-0.1-0.6-0.2-0.9
		c-0.8-2.4-1.1-2.7-3.3-2.1c-2.6,0.6-5.3,1.4-7.9,2.1c-10.6,2.9-21.2,6-31.8,8.6c-11.7,2.9-23.5,4.8-35.5,4.2
		c-6.2-0.3-12.2-1.3-17.8-4.6c-5.7-3.4-9.1-8.8-9.9-16.4c-0.1-0.7-0.1-1.3-0.1-2.2c4.9,2,9.8,2.5,14.8,2.1
		c7.7-0.6,15.5-1.4,23.2-2.6c13.8-2.2,27.6-4.9,41.4-7.2c7.3-1.2,14.7-1.9,22.2-1c3.6,0.4,7.2,1.2,10.3,3.9
		c4.2,3.7,6.2,8.8,6.9,14.8c0.6,5.7,0.2,11.4-0.4,17.1c-0.1,1.1-0.2,2.1-0.3,3.2c-0.2,2,0.6,3.6,2.2,4.4c0.7,0.4,1.5,0.7,2.3,0.9
		c2.8,0.6,5.7,0.3,8.4-0.1c0-5,0-10,0-14.9c-0.1-6.2-0.2-12.4-0.3-18.5c0-1.2-0.3-1.9-1.2-2.5c-5.3-4-7.6-9.8-6.8-17.1
		c0.9-7,4.4-11.8,10.2-13.8c6-2.1,11.2-0.1,15.3,5.5c5.6,7.7,3.9,20-3.4,25.3c-1,0.7-1.4,1.4-1.4,2.8c-0.1,10.8-0.3,21.5-0.4,32.3
		c0,0.4,0.4,1.2,0.6,1.2c2.7,0.3,5.5,0.5,8.2-0.5c2.4-0.9,3.3-2.5,3.1-5.4c-0.3-3.9-0.7-7.8-0.9-11.7c-0.2-5.1,0.1-10.3,1.9-15.1
		c2.6-7,7.4-10.4,13.6-11.4c6.5-1,13-0.8,19.5,0.2c11.8,1.8,23.5,3.9,35.2,5.9c10.8,1.9,21.7,4,32.7,4.4c5.3,0.2,10.6,0.1,15.7-1.9
		c0.1,0,0.2,0,0.4-0.1c-0.3,7.2-2.7,13-7.9,17c-4.4,3.4-9.3,4.8-14.5,5.5c-9.2,1.3-18.3,0.4-27.4-1c-15.6-2.5-30.9-7.1-46.2-11.5
		c-2.3-0.7-4.5-1.2-6.8-1.8C516.6,286,516.2,286.3,515.4,289.7z"/>
	<path class="st1" d="M481.5,426.6c-0.5,0.3-0.8,0.5-1.1,0.7c-3.2,1.9-6.4,3.8-9.7,5.6c-0.4,0.2-0.9,0.4-1.2,0.2
		c-4-2.3-7.9-5-10.9-9c-4-5.2-5.4-11.4-4.3-18.3c0.9-5.7,4.3-9.2,8.4-11.7c5.1-3.2,10.8-4.8,16.4-6.4c6.7-1.9,13.6-3.5,20.1-6.4
		c3.6-1.6,7-3.6,9.6-7c1.4-1.8,2.3-3.8,2.8-6.3c-2.8-1.3-5.6-2.4-8.4-3.8c-1.2-0.6-2.3-1.8-3.4-2.7c-0.2-0.2-0.3-0.6-0.3-0.9
		c-0.1-0.3-0.1-0.7-0.1-1c-0.2-4.9,0.5-5.7,4.6-5.7c5,0,9.9,0.4,14.7,2.3c1.5,0.6,2.9,1.5,4.2,2.6c1.5,1.4,1.9,3.3,1.4,5.6
		c-0.4,1.7-0.4,3.5-0.6,5.3c-1.2,7.8-5.2,13.3-10.8,17.3c-5.6,4.1-11.9,6.4-18.2,8.3c-7.9,2.4-15.9,4.8-23.8,7.4
		c-1.6,0.5-3.2,1.6-4.6,2.6c-2.3,1.7-2.8,3.7-2,6.7c0.8,3.2,2.5,5.6,4.9,7.2c3.6,2.5,7.4,4.6,11.1,6.8
		C480.5,426.1,480.9,426.3,481.5,426.6z M504.4,357.2c0.5,1.6,1.2,2.6,2.5,2.9c1.5,0.3,3.6-0.5,4.5-1.9
		C509.1,357.9,506.8,357.6,504.4,357.2z"/>
	<path class="st1" d="M492.1,399.3c5.1-2,10.2-4,15.3-6c0.2-0.1,0.6-0.2,0.8,0c4.5,2.6,8.4,5.9,9.5,12.1c1.4,8-0.7,14.8-5.7,20.3
		c-3.6,4-7.9,6.7-12.4,8.9c-5.4,2.8-10.9,5.2-16.3,8.1c-2.7,1.5-5.4,3.2-7.9,5.3c-7.1,5.9-5.1,14.2-1.4,19c2.2,2.8,4.9,4.6,7.8,6.2
		c0.2,0.1,0.4,0.3,0.6,0.4c0,0,0,0.1,0,0.2c-2.6,1.5-5.2,3-7.8,4.5c-0.2,0.1-0.5,0-0.7-0.1c-4.5-2.9-8.7-6.1-11.3-11.6
		c-3.4-7.4-2.4-17,2.3-23.4c3.6-4.8,8.1-7.9,13-10.4c6.3-3.3,12.8-6.2,19-9.6c2.8-1.5,5.4-3.8,7.9-6c1.8-1.6,2.8-3.9,3.1-6.5
		c0.3-2.3-0.4-4.1-2.1-5.2c-2.3-1.5-4.7-2.7-7.1-3.8C496.7,400.6,494.3,400.1,492.1,399.3z"/>
	<path class="st1" d="M490.6,443.4c3.6-1.8,7.2-3.6,10.9-5.4c0.2-0.1,0.6,0,0.8,0.1c7.7,6.2,10.6,15.5,8.1,25.3
		c-1.2,4.8-4,8.2-7.4,11.1c-4.8,4.1-10.2,6.5-15.6,9c-2.7,1.2-5.4,2.4-8,3.9c-3.5,2-6.3,4.8-7.3,9.5c-0.7,3.4-0.1,6.7,1,9.9
		c0.1,0.4,0.3,0.9,0.5,1.4c-1.2,0.6-2.3,1.2-3.5,1.9c-1.3-3.1-2.2-6.3-2.8-9.6c-1.3-7.9,1-13.9,6.7-18.3c4.3-3.3,9.1-5.4,13.8-7.9
		c3.5-1.8,7-3.8,9.8-7c2.3-2.6,3.6-5.7,3.8-9.5c0.2-3.9-1.2-6.9-3.7-9.2C495.4,446.9,492.9,445.3,490.6,443.4z"/>
	<path class="st1" d="M460.5,367.9c0.5,2.9,1.8,5.2,3.5,7.1c2.9,3.3,6.6,5.2,10.3,6.8c2,0.8,4,1.5,6.2,2.3c-0.7,0.2-1.1,0.4-1.5,0.5
		c-4.7,1.7-9.5,3.3-14.2,5c-0.3,0.1-0.8,0.2-1,0.1c-5.5-2.9-10.4-6.7-13.2-13.2c-1.1-2.6-1.6-5.5-2.3-8.3c-0.4-1.5-0.4-3.1-0.6-4.7
		c-0.3-2.5,0.6-4.4,2.4-5.4c2-1.2,4.3-2.2,6.5-2.9c4.5-1.2,9.1-1.5,13.8-1.2c1.2,0.1,1.9,0.7,2,2c0.2,1.5,0.7,3.3,0.2,4.5
		c-0.6,1.5-2,2.8-3.3,3.5C466.4,365.5,463.5,366.6,460.5,367.9z M460.5,358.2c2.9,3,6.3,2.5,7-1C465.2,357.6,463,357.9,460.5,358.2z
		"/>
	<path class="st1" d="M488.8,523c-1.9,0-3.6,0-5.5,0c0-0.5-0.1-1-0.1-1.5c-0.2-10.8-0.3-21.6-0.5-32.4c0-0.8,0.2-1.2,0.9-1.4
		c1.6-0.4,3.2-0.8,4.8,0.6c0.6,0.6,0.9,1,0.9,1.9c-0.2,10.2-0.3,20.4-0.5,30.5C488.8,521.4,488.8,522.1,488.8,523z"/>
	<path class="st1" d="M490.4,403c0,3.4,0,6.9,0,10.3c0,2.7-0.1,5.3-0.1,8c0,1-0.2,1.5-1,1.8c-1.7,0.7-3.4,1.6-5.1,2.4
		c-0.6,0.3-0.9,0.2-1.3-0.4c-0.8-1.1-1.1-2.2-1.1-3.7c0-5.7-0.1-11.5-0.3-17.2c0-1,0.2-1.3,1-1.7C485.2,401.3,487.8,401.9,490.4,403
		z"/>
	<path class="st1" d="M489.6,469.8c-1,0.5-1.8,1-2.6,1.2c-0.5,0.1-1.2-0.1-1.7-0.3c-2.2-0.7-3-2.1-2.9-4.9
		c0.2-5.6-0.1-11.3-0.2-16.9c0-0.9,0.2-1.4,0.9-1.7c1.2-0.6,2.4-1.3,3.6-1.9c0.5-0.3,1.4-0.7,1.6-0.5c0.8,0.8,1.7,1.5,1.6,3
		c-0.2,5.1-0.2,10.2-0.3,15.4C489.6,465.4,489.6,467.6,489.6,469.8z"/>
	<path class="st1" d="M502.3,510.3c-0.7-0.3-1.1-0.5-1.5-0.7c-0.7-0.4-1.4-0.8-2.2-1.2c1.6-4.6,2.7-9.2,0.6-14
		c-2-4.5-5.7-6.6-9.6-8.7c1.8-0.9,3.3-1.7,4.9-2.4c0.2-0.1,0.5-0.2,0.7-0.3c1.8-1.7,3.2-0.5,4.7,0.9c4.9,4.7,6.2,10.8,4.8,17.8
		C504.1,504.5,503.1,507.3,502.3,510.3z"/>
</g>
<rect x="543.8" y="364" class="st2" width="1151.2" height="159"/>
<text transform="matrix(1 0 0 1 641.4824 370.552)" class="st3 st4 st5">Florence Nightingale </text>
<text transform="matrix(1 0 0 1 742.8824 456.952)" class="st3 st4 st5">Orthopedic Clinic</text>
</svg>
